<?xml version="1.0" encoding="utf-8"?>
<!-- Generator: Adobe Illustrator 16.0.0, SVG Export Plug-In . SVG Version: 6.00 Build 0)  -->
<!DOCTYPE svg PUBLIC "-//W3C//DTD SVG 1.1//EN" "http://www.w3.org/Graphics/SVG/1.1/DTD/svg11.dtd">
<svg version="1.1" id="Capa_1" xmlns="http://www.w3.org/2000/svg" xmlns:xlink="http://www.w3.org/1999/xlink" x="0px" y="0px"
	 width="166.35px" height="51.002px" viewBox="0 0 166.35 51.002" enable-background="new 0 0 166.35 51.002" xml:space="preserve">
<g>
	<g>
		<g>
			<path fill="#D6D7DB" d="M66.052,5.13h3.887l8.21,19.296h-4.406l-1.751-4.297H63.89l-1.751,4.297h-4.297L66.052,5.13z
				 M70.485,16.406l-2.545-6.213l-2.545,6.213H70.485z"/>
			<path fill="#D6D7DB" d="M79.055,5.267h8.76c2.437,0,4.324,0.682,5.582,1.942c1.068,1.068,1.646,2.572,1.646,4.378v0.056
				c0,3.094-1.672,5.037-4.107,5.94l4.681,6.843h-4.927l-4.104-6.132h-3.313v6.132h-4.215V5.267H79.055z M87.54,14.572
				c2.054,0,3.229-1.094,3.229-2.709v-0.054c0-1.809-1.259-2.737-3.312-2.737H83.27v5.5H87.54z"/>
			<polygon fill="#D6D7DB" points="101.256,9.154 95.426,9.154 95.426,5.267 111.299,5.267 111.299,9.154 105.471,9.154 
				105.471,24.427 101.256,24.427 			"/>
			<polygon fill="#D6D7DB" points="112.479,5.267 116.694,5.267 116.694,12.847 124.468,12.847 124.468,5.267 128.682,5.267 
				128.682,24.427 124.468,24.427 124.468,16.734 116.694,16.734 116.694,24.427 112.479,24.427 			"/>
			<path fill="#D6D7DB" d="M137.8,5.13h3.886l8.211,19.296h-4.405l-1.754-4.297h-8.101l-1.752,4.297h-4.297L137.8,5.13z
				 M142.234,16.406l-2.546-6.213l-2.545,6.213H142.234z"/>
		</g>
		<g>
			<path fill="#D6D7DB" d="M57.841,38.065v-0.053c0-5.449,4.105-9.908,9.99-9.908c3.613,0,5.774,1.203,7.555,2.955l-2.683,3.092
				c-1.479-1.34-2.983-2.162-4.899-2.162c-3.229,0-5.556,2.686-5.556,5.968v0.056c0,3.282,2.271,6.021,5.556,6.021
				c2.189,0,3.532-0.877,5.036-2.246l2.683,2.711c-1.97,2.107-4.16,3.421-7.854,3.421C62.028,47.919,57.841,43.567,57.841,38.065"/>
			<path fill="#D6D7DB" d="M83.408,28.295h3.887l8.21,19.297H91.1l-1.752-4.297h-8.102l-1.751,4.297h-4.298L83.408,28.295z
				 M87.841,39.571l-2.544-6.213l-2.547,6.213H87.841z"/>
			<path fill="#D6D7DB" d="M96.411,28.433h7.828c4.571,0,7.336,2.709,7.336,6.623v0.055c0,4.434-3.45,6.732-7.746,6.732h-3.203
				v5.749h-4.215V28.433z M103.965,38.095c2.106,0,3.339-1.261,3.339-2.902v-0.055c0-1.891-1.313-2.902-3.421-2.902h-3.258v5.859
				H103.965z"/>
			<rect x="112.835" y="28.433" fill="#D6D7DB" width="4.215" height="19.159"/>
			<polygon fill="#D6D7DB" points="124.25,32.319 118.42,32.319 118.42,28.433 134.295,28.433 134.295,32.319 128.465,32.319 
				128.465,47.592 124.25,47.592 			"/>
			<path fill="#D6D7DB" d="M139.58,28.295h3.887l8.211,19.297h-4.405l-1.752-4.297h-8.104l-1.752,4.297h-4.296L139.58,28.295z
				 M144.014,39.571l-2.545-6.213l-2.546,6.213H144.014z"/>
			<polygon fill="#D6D7DB" points="152.583,28.433 156.799,28.433 156.799,43.759 166.35,43.759 166.35,47.592 152.583,47.592 			
				"/>
		</g>
	</g>
	<g>
		<path fill="#D6D7DB" d="M25.501,51.002C11.44,51.002,0,39.562,0,25.501C0,11.441,11.44,0,25.501,0
			c14.061,0,25.501,11.441,25.501,25.501C51.002,39.562,39.563,51.002,25.501,51.002 M25.501,3.94
			c-11.89,0-21.562,9.671-21.562,21.561c0,11.889,9.672,21.561,21.563,21.561c11.889,0,21.562-9.672,21.562-21.561
			C47.063,13.611,37.39,3.94,25.501,3.94"/>
		<polygon fill="#D6D7DB" points="16.937,35.405 12.093,35.405 23.011,11.437 27.854,11.437 		"/>
		<polygon fill="#D6D7DB" points="23.093,31.793 31.794,31.793 28.593,25.801 33.765,25.801 38.689,35.979 21.206,35.979 		"/>
	</g>
</g>
</svg>
